# xmcd CD database file
#
# Track frame offsets:
#	150
#	15143
#	35138
#	50638
#	64747
#	85175
#	96892
#	108959
#	122270
#	132846
#	148164
#	163351
#	174426
#	185630
#	198990
#	211471
#	219227
#
# Disc length: 3040 seconds
#
# Revision: 0
# Processed by: cddbd v1.5.2PL0 Copyright (c) Steve Scherf et al.
# Submitted via: CDex 1.51
#
DISCID=f10bde11
DTITLE=Nadja Petrick - The Night with You
DYEAR=2006
DGENRE=Blues
TTITLE0=There's A Song Lingering On
TTITLE1=Ain't Gonna Drink From That Well No More
TTITLE2=Only The Leaves In The Wind
TTITLE3=Better Off With Me
TTITLE4=The Night With You
TTITLE5=Every Star In The Sky
TTITLE6=Stranger In This Town
TTITLE7=Red Roses Are Out Of Fashion
TTITLE8=Out Of My Mind
TTITLE9=Dance With Me
TTITLE10=Angel In Disguise
TTITLE11=Blue Skies
TTITLE12=Traveller's Blues
TTITLE13=Goodnight Sweetheart
TTITLE14=Till Closing Time
TTITLE15=Hallelujah, I'm In Love
TTITLE16=Lullaby
EXTD=YEAR: 2006
EXTT0=
EXTT1=
EXTT2=
EXTT3=
EXTT4=
EXTT5=
EXTT6=
EXTT7=
EXTT8=
EXTT9=
EXTT10=
EXTT11=
EXTT12=
EXTT13=
EXTT14=
EXTT15=
EXTT16=
PLAYORDER=
